<svg width="48" height="52" viewBox="0 0 48 52" fill="none" xmlns="http://www.w3.org/2000/svg">
<path d="M44.8731 16.269C42.9414 13.5735 40.1857 11.4989 37.0682 10.3645C34.5403 9.44443 31.4719 8.74768 28.8301 9.58289C28.2718 9.75931 27.7381 10.0117 27.2579 10.3466C25.0047 11.9255 23.7206 14.7348 24.1226 17.4726C24.3392 18.9532 25.0203 20.2038 26.3356 21.0502C28.1534 22.2226 30.1409 22.3186 32.1642 21.93C34.643 21.4544 37.0526 21.298 39.3929 22.5196C41.2733 23.4999 42.1196 25.4093 41.8539 27.2874C41.8204 27.5308 41.8628 27.7742 41.9834 27.9886C42.6935 29.2392 42.7538 30.416 41.9008 31.6287C41.5457 31.1776 41.5792 31.1463 40.4626 30.3535C39.2634 29.5027 37.7136 29.2794 36.3424 29.8086C34.1986 30.6371 32.5371 32.1266 31.0163 33.7502C29.3348 35.5434 27.7492 37.4282 26.1324 39.2817C25.918 39.5273 25.7104 39.7752 25.5027 40.0253C25.1074 40.501 25.2995 41.2335 25.8801 41.4412C25.8845 41.4434 25.889 41.4434 25.8912 41.4456C26.0342 41.497 26.1726 41.5506 26.3178 41.5975C32.3428 43.5694 38.6828 41.8856 42.9459 37.7654C44.8173 35.9565 46.2889 33.6832 47.1532 31.0369C48.8571 25.8358 47.8343 20.4003 44.8731 16.269Z" fill="#FF4800"/>
<path d="M38.2742 27.8613C38.844 27.8613 39.3059 27.3994 39.3059 26.8296C39.3059 26.2598 38.844 25.7979 38.2742 25.7979C37.7044 25.7979 37.2424 26.2598 37.2424 26.8296C37.2424 27.3994 37.7044 27.8613 38.2742 27.8613Z" fill="#FF4800"/>
<path d="M26.3177 33.9109C26.7219 31.6376 26.646 29.2816 26.0989 27.0373C25.4959 24.5607 24.2208 22.4057 22.9814 20.2038C21.7063 17.9394 20.554 15.5856 19.625 13.1582C18.8523 11.1416 18.2382 9.05809 17.863 6.92765C17.4834 4.77712 17.6263 2.60872 17.298 0.462649C17.2623 0.234866 17.0926 -0.149237 16.7955 0.0606796C16.6906 0.134374 16.6348 0.261664 16.5856 0.380022C15.6365 2.71368 15.2837 5.28628 15.5673 7.78965C15.1653 6.48548 14.607 5.23938 13.9661 4.03571C13.9081 3.92628 13.8455 3.81239 13.7451 3.74093C13.6446 3.66947 13.4927 3.6516 13.4011 3.73423C13.3208 3.80792 13.3118 3.92851 13.3074 4.03571C13.2672 5.29968 13.227 7.08174 13.7093 8.27201C13.457 7.64896 13.1198 7.06164 12.7066 6.53238C12.5994 6.39392 12.4431 6.24654 12.2756 6.29567C12.1305 6.34033 12.0679 6.51005 12.0344 6.65744C11.7508 7.91694 11.9362 9.26577 12.5235 10.4136C12.2153 10.1322 11.8335 9.93349 11.427 9.84193C11.3131 9.81736 11.1903 9.7995 11.0831 9.84639C10.8486 9.94465 10.8196 10.2595 10.8352 10.5141C10.8955 11.461 11.0943 12.3989 11.4226 13.2899C11.1256 13.051 10.7772 12.879 10.4087 12.7875C10.3082 12.7629 10.1966 12.745 10.1005 12.7852C9.93305 12.8545 9.88168 13.0621 9.86158 13.2408C9.75886 14.2368 10.0782 15.2685 10.7258 16.0322C10.5606 15.8156 10.3395 15.5767 10.0715 15.6146C9.84372 15.6481 9.68963 15.8871 9.674 16.1171C9.6405 16.5995 10.0447 18.2565 10.5941 18.3838C10.2747 18.3101 9.87052 18.2721 9.68516 18.5446C9.5869 18.6875 9.58914 18.8751 9.60924 19.0492C9.6874 19.708 10.009 20.215 10.3953 20.7286C10.1206 20.8626 9.81022 20.9742 9.68293 21.3114C9.56457 21.6241 9.62933 21.9859 9.79459 22.2784C9.95984 22.5687 10.2167 22.7987 10.4891 22.9952C10.3931 22.926 10.0112 23.194 9.93974 23.2543C9.78342 23.3883 9.6673 23.5625 9.60477 23.759C9.45515 24.2123 9.6606 24.6121 9.95984 24.956C10.0626 25.0743 10.9625 26.1395 11.1367 25.9542C10.8598 26.2512 10.3797 26.1261 10.1273 26.5013C9.84595 26.9189 10.0581 27.3231 10.4266 27.5933C10.6209 27.7362 11.9139 28.5245 12.1238 28.3146C11.6883 28.7523 11.0407 29.0694 11.2216 29.8109C11.3042 30.1525 11.5811 30.4384 11.9183 30.5344C12.0211 30.5634 12.155 30.6036 12.1595 30.7108C12.1617 30.7465 12.1461 30.7778 12.1327 30.8091C11.9675 31.1463 11.5476 31.5393 11.7508 31.948C11.8893 32.2294 12.2823 32.2986 12.4476 32.5643C12.4967 32.6425 12.5123 32.7631 12.4364 32.8122C12.4052 32.8323 12.365 32.8368 12.327 32.8368C12.1349 32.8413 11.9139 32.81 11.7732 32.9417C11.6079 33.0981 11.6749 33.3817 11.8134 33.5626C11.9518 33.7434 12.1461 33.8841 12.2421 34.0896C12.2756 34.1588 12.2846 34.2593 12.2176 34.295C12.1863 34.3107 12.1506 34.3084 12.1171 34.304C11.1323 34.1834 10.1452 34.065 9.1626 33.931C8.21798 33.8015 7.24879 33.7524 6.29523 33.7658C6.08531 33.7702 5.87762 33.7769 5.66994 33.7903C5.51362 33.7993 5.21884 33.8841 5.07369 33.8372C4.38811 33.9065 3.68466 34.0382 3.1152 34.429C2.55915 34.8109 2.18174 35.4652 2.10358 36.1329C2.08795 36.2647 2.08572 36.4009 2.13261 36.5237C2.39166 37.1803 3.94371 37.2093 4.502 37.0552C3.52164 37.3277 2.36486 37.6336 1.58549 38.3214C1.31081 38.5648 1.05623 38.8842 0.991468 39.2549C0.904375 39.764 1.24828 40.1995 1.68598 40.4184C2.04999 40.5993 2.50555 40.6662 2.90529 40.5858C3.18667 40.53 3.62883 40.4452 3.87895 40.3313C3.11967 40.6729 2.35146 41.0236 1.70608 41.5506C1.0607 42.0776 0.542603 42.8123 0.457743 43.6431C0.424245 43.9669 0.500173 44.3577 0.799416 44.485C0.953504 44.5519 1.13216 44.5274 1.29518 44.4894C1.85793 44.3599 2.38496 44.0763 2.80256 43.6788C2.3336 44.1232 1.77084 44.476 1.29964 44.9293C0.87981 45.3358 0.267924 45.8449 0.0468411 46.3988C-0.129579 46.8432 0.218794 47.1491 0.649795 47.0308C1.36887 46.832 2.01202 46.3854 2.44972 45.7824C1.75074 46.7427 1.02497 47.7588 0.562701 48.8575C0.535903 48.9222 0.509105 48.9892 0.509105 49.0607C0.504639 49.3577 0.882043 49.3108 1.07186 49.2617C1.63908 49.1165 2.16164 48.8017 2.54798 48.3595C1.99192 49.0026 1.26838 49.7932 0.902142 50.5592C0.669893 51.0415 1.20808 51.0125 1.48946 50.8271C1.86687 50.5792 2.46982 50.213 2.78916 49.8914C2.51895 50.1639 2.20854 50.481 1.9361 50.7534C1.63462 51.0527 1.4783 51.1755 1.17682 51.5462C0.97137 51.7963 1.29518 51.8566 1.55646 51.7829C3.1688 51.3341 4.59132 50.4028 5.77043 49.2371C7.00984 48.0133 7.99019 46.5283 9.37029 45.4452C10.6611 44.4336 12.1416 43.6006 13.7205 43.0982C14.5244 42.8436 15.3552 42.6716 16.1948 42.6002C17.1194 42.522 18.0506 42.5957 18.9729 42.4684C20.4311 42.2674 21.8939 41.8275 23.1199 40.9945C23.265 40.8963 23.4079 40.7913 23.5442 40.6819C25.3061 39.2839 25.9515 35.9721 26.3177 33.9109Z" fill="#FF4800"/>
</svg>
